<svg width="739" height="979" viewBox="0 0 739 979" fill="none" xmlns="http://www.w3.org/2000/svg">
<rect width="739" height="979" fill="#2A2A2A"/>
<rect width="1920" height="1080" transform="translate(-1171 -10)" fill="black"/>
<path d="M368.225 449C351.015 449 388.998 374.833 370.668 254.858C358.449 180.691 360.79 4 378 4" stroke="#9D9D9D" stroke-width="2"/>
<g filter="url(#filter0_d_0_1)">
<ellipse cx="364.124" cy="524.392" rx="83.1471" ry="7.62869" fill="#55637B"/>
</g>
<path d="M447.271 523.847C447.271 530.63 394.388 521.191 364.539 521.191C334.691 521.191 280.977 530.63 280.977 523.847C280.977 517.063 334.691 484.342 364.539 484.342C394.388 484.342 447.271 517.063 447.271 523.847Z" fill="#55637B"/>
<path d="M351.652 460.143C351.652 452.968 357.468 447.152 364.643 447.152V447.152C371.819 447.152 377.635 452.968 377.635 460.143V486.884H351.652V460.143Z" fill="#55637B"/>
<path d="M279.623 524.5L291.123 528.5L317.815 530.784L370.623 532.5L422.469 530.357L447.623 524.5L739 942.513H0L279.623 524.5Z" fill="url(#paint0_linear_0_1)" fill-opacity="0.28"/>
<path d="M414 3.2941C414 5.8931 396.539 8 375 8C353.461 8 336 5.8931 336 3.2941C336 0.695099 355.825 0 377.364 0C398.903 0 414 0.695099 414 3.2941Z" fill="#9D9D9D" fill-opacity="0.78"/>
<defs>
<filter id="filter0_d_0_1" x="34.7767" y="470.564" width="658.694" height="507.657" filterUnits="userSpaceOnUse" color-interpolation-filters="sRGB">
<feFlood flood-opacity="0" result="BackgroundImageFix"/>
<feColorMatrix in="SourceAlpha" type="matrix" values="0 0 0 0 0 0 0 0 0 0 0 0 0 0 0 0 0 0 127 0" result="hardAlpha"/>
<feMorphology radius="53" operator="dilate" in="SourceAlpha" result="effect1_dropShadow_0_1"/>
<feOffset dy="200"/>
<feGaussianBlur stdDeviation="96.6"/>
<feComposite in2="hardAlpha" operator="out"/>
<feColorMatrix type="matrix" values="0 0 0 0 1 0 0 0 0 1 0 0 0 0 1 0 0 0 0.25 0"/>
<feBlend mode="normal" in2="BackgroundImageFix" result="effect1_dropShadow_0_1"/>
<feBlend mode="normal" in="SourceGraphic" in2="effect1_dropShadow_0_1" result="shape"/>
</filter>
<linearGradient id="paint0_linear_0_1" x1="376.123" y1="526" x2="376.123" y2="942" gradientUnits="userSpaceOnUse">
<stop stop-color="#E9E9E9"/>
<stop offset="1" stop-color="#E9E9E9" stop-opacity="0"/>
</linearGradient>
</defs>
</svg>
