<svg width="628" height="676" viewBox="0 0 628 676" fill="none" xmlns="http://www.w3.org/2000/svg">
<rect width="628" height="676" fill="#2A2A2A"/>
<g clip-path="url(#clip0_0_1)">
<rect width="1920" height="1080" transform="translate(-1292 -14)" fill="black"/>
<path d="M330.876 123.727C314.814 123.727 350.265 103.273 333.157 70.1845C321.752 49.7299 323.938 1 340 1" stroke="#9D9D9D" stroke-width="2"/>
<g filter="url(#filter0_d_0_1)">
<ellipse cx="327" cy="198.906" rx="80" ry="7.64854" fill="#55637B"/>
</g>
<path d="M407 198.359C407 205.16 356.119 195.696 327.4 195.696C298.681 195.696 247 205.16 247 198.359C247 191.558 298.681 158.751 327.4 158.751C356.119 158.751 407 191.558 407 198.359Z" fill="#55637B"/>
<path d="M315 133.964C315 127.061 320.596 121.464 327.5 121.464V121.464C334.404 121.464 340 127.061 340 133.964V161.3H315V133.964Z" fill="#55637B"/>
<path d="M244.993 207.617L286.715 211.008L328.49 213.346L368.286 210.526L406.988 206.185L615 676H39L244.993 207.617Z" fill="url(#paint0_linear_0_1)" fill-opacity="0.04"/>
</g>
<defs>
<filter id="filter0_d_0_1" x="0.800003" y="145.057" width="652.4" height="507.697" filterUnits="userSpaceOnUse" color-interpolation-filters="sRGB">
<feFlood flood-opacity="0" result="BackgroundImageFix"/>
<feColorMatrix in="SourceAlpha" type="matrix" values="0 0 0 0 0 0 0 0 0 0 0 0 0 0 0 0 0 0 127 0" result="hardAlpha"/>
<feMorphology radius="53" operator="dilate" in="SourceAlpha" result="effect1_dropShadow_0_1"/>
<feOffset dy="200"/>
<feGaussianBlur stdDeviation="96.6"/>
<feComposite in2="hardAlpha" operator="out"/>
<feColorMatrix type="matrix" values="0 0 0 0 1 0 0 0 0 1 0 0 0 0 1 0 0 0 0.25 0"/>
<feBlend mode="normal" in2="BackgroundImageFix" result="effect1_dropShadow_0_1"/>
<feBlend mode="normal" in="SourceGraphic" in2="effect1_dropShadow_0_1" result="shape"/>
</filter>
<linearGradient id="paint0_linear_0_1" x1="327" y1="206.185" x2="327" y2="676" gradientUnits="userSpaceOnUse">
<stop stop-color="#E9E9E9"/>
<stop offset="1" stop-color="#E9E9E9" stop-opacity="0"/>
</linearGradient>
<clipPath id="clip0_0_1">
<rect width="1920" height="1080" fill="white" transform="translate(-1292 -14)"/>
</clipPath>
</defs>
</svg>
