<svg width="654" height="659" viewBox="0 0 654 659" fill="none" xmlns="http://www.w3.org/2000/svg">
<g filter="url(#filter0_i_104_180)">
<g filter="url(#filter1_d_104_180)">
<ellipse cx="327" cy="204" rx="80" ry="8" fill="#55637B"/>
</g>
<path d="M330.876 127C314.814 127 350.265 105 333.157 69.4118C321.752 47.4118 323.938 -5 340 -5" stroke="#9D9D9D" stroke-width="2"/>
<path d="M407 203.428C407 210.542 356.119 200.643 327.4 200.643C298.681 200.643 247 210.542 247 203.428C247 196.314 298.681 162 327.4 162C356.119 162 407 196.314 407 203.428Z" fill="#55637B"/>
<path d="M315 135.5C315 128.596 320.596 123 327.5 123C334.404 123 340 128.596 340 135.5V164.667H315V135.5Z" fill="#55637B"/>
</g>
<defs>
<filter id="filter0_i_104_180" x="247" y="-6" width="165" height="222" filterUnits="userSpaceOnUse" color-interpolation-filters="sRGB">
<feFlood flood-opacity="0" result="BackgroundImageFix"/>
<feBlend mode="normal" in="SourceGraphic" in2="BackgroundImageFix" result="shape"/>
<feColorMatrix in="SourceAlpha" type="matrix" values="0 0 0 0 0 0 0 0 0 0 0 0 0 0 0 0 0 0 127 0" result="hardAlpha"/>
<feOffset dx="5" dy="4"/>
<feGaussianBlur stdDeviation="4.2"/>
<feComposite in2="hardAlpha" operator="arithmetic" k2="-1" k3="1"/>
<feColorMatrix type="matrix" values="0 0 0 0 0.948333 0 0 0 0 0.948333 0 0 0 0 0.948333 0 0 0 1 0"/>
<feBlend mode="normal" in2="shape" result="effect1_innerShadow_104_180"/>
</filter>
<filter id="filter1_d_104_180" x="0.800003" y="149.8" width="652.4" height="508.4" filterUnits="userSpaceOnUse" color-interpolation-filters="sRGB">
<feFlood flood-opacity="0" result="BackgroundImageFix"/>
<feColorMatrix in="SourceAlpha" type="matrix" values="0 0 0 0 0 0 0 0 0 0 0 0 0 0 0 0 0 0 127 0" result="hardAlpha"/>
<feMorphology radius="53" operator="dilate" in="SourceAlpha" result="effect1_dropShadow_104_180"/>
<feOffset dy="200"/>
<feGaussianBlur stdDeviation="96.6"/>
<feComposite in2="hardAlpha" operator="out"/>
<feColorMatrix type="matrix" values="0 0 0 0 1 0 0 0 0 1 0 0 0 0 1 0 0 0 0.25 0"/>
<feBlend mode="normal" in2="BackgroundImageFix" result="effect1_dropShadow_104_180"/>
<feBlend mode="normal" in="SourceGraphic" in2="effect1_dropShadow_104_180" result="shape"/>
</filter>
</defs>
</svg>
