<svg width="654" height="653" viewBox="0 0 654 653" fill="none" xmlns="http://www.w3.org/2000/svg">
<rect width="654" height="653" fill="#2A2A2A"/>
<rect width="1920" height="1080" transform="translate(-946 -39)" fill="black"/>
<rect x="-207" y="609" width="454" height="61" rx="10" fill="#55637B"/>
<path d="M-69.402 646.5V631.955H-64.2173C-63.0904 631.955 -62.1553 632.149 -61.4119 632.537C-60.6638 632.925 -60.1051 633.463 -59.7358 634.149C-59.3665 634.831 -59.1818 635.619 -59.1818 636.514C-59.1818 637.404 -59.3688 638.188 -59.7429 638.865C-60.1122 639.537 -60.6709 640.061 -61.419 640.435C-62.1624 640.809 -63.0975 640.996 -64.2244 640.996H-68.152V639.107H-64.4233C-63.7131 639.107 -63.1354 639.005 -62.6903 638.801C-62.2405 638.598 -61.9115 638.302 -61.7031 637.913C-61.4948 637.525 -61.3906 637.059 -61.3906 636.514C-61.3906 635.965 -61.4972 635.489 -61.7102 635.087C-61.9186 634.684 -62.2476 634.376 -62.6974 634.163C-63.1425 633.946 -63.7273 633.837 -64.4517 633.837H-67.2074V646.5H-69.402ZM-62.2216 639.938L-58.6278 646.5H-61.1278L-64.6506 639.938H-62.2216ZM-49.9168 646.72C-50.9916 646.72 -51.9173 646.491 -52.6938 646.031C-53.4656 645.567 -54.0622 644.916 -54.4836 644.078C-54.9003 643.235 -55.1086 642.248 -55.1086 641.116C-55.1086 639.999 -54.9003 639.014 -54.4836 638.162C-54.0622 637.31 -53.4751 636.644 -52.7222 636.166C-51.9647 635.688 -51.0792 635.449 -50.066 635.449C-49.4504 635.449 -48.8539 635.551 -48.2762 635.754C-47.6986 635.958 -47.1801 636.277 -46.7208 636.713C-46.2615 637.149 -45.8993 637.714 -45.6342 638.411C-45.369 639.102 -45.2364 639.942 -45.2364 640.932V641.685H-53.9083V640.094H-47.3174C-47.3174 639.535 -47.431 639.04 -47.6583 638.609C-47.8856 638.174 -48.2052 637.83 -48.6171 637.58C-49.0243 637.329 -49.5025 637.203 -50.0518 637.203C-50.6484 637.203 -51.1692 637.35 -51.6143 637.643C-52.0546 637.932 -52.3955 638.311 -52.637 638.78C-52.8737 639.244 -52.9921 639.748 -52.9921 640.293V641.536C-52.9921 642.265 -52.8643 642.885 -52.6086 643.396C-52.3482 643.908 -51.986 644.298 -51.5219 644.568C-51.0579 644.833 -50.5158 644.966 -49.8955 644.966C-49.4931 644.966 -49.1261 644.909 -48.7947 644.795C-48.4632 644.677 -48.1768 644.502 -47.9353 644.27C-47.6938 644.038 -47.5092 643.751 -47.3813 643.411L-45.3714 643.773C-45.5324 644.365 -45.8212 644.883 -46.2379 645.328C-46.6498 645.768 -47.1683 646.112 -47.7933 646.358C-48.4135 646.599 -49.1214 646.72 -49.9168 646.72ZM-32.5055 638.254L-34.4303 638.595C-34.5107 638.349 -34.6386 638.115 -34.8138 637.892C-34.9842 637.67 -35.2162 637.487 -35.5098 637.345C-35.8034 637.203 -36.1703 637.132 -36.6107 637.132C-37.212 637.132 -37.7139 637.267 -38.1163 637.537C-38.5188 637.802 -38.72 638.145 -38.72 638.567C-38.72 638.931 -38.5851 639.225 -38.3152 639.447C-38.0453 639.67 -37.6097 639.852 -37.0084 639.994L-35.2754 640.392C-34.2716 640.624 -33.5235 640.982 -33.0311 641.464C-32.5387 641.947 -32.2925 642.575 -32.2925 643.347C-32.2925 644 -32.4819 644.582 -32.8607 645.094C-33.2347 645.6 -33.7579 645.998 -34.4303 646.287C-35.0979 646.576 -35.872 646.72 -36.7527 646.72C-37.9743 646.72 -38.971 646.46 -39.7428 645.939C-40.5145 645.413 -40.988 644.668 -41.1632 643.702L-39.1107 643.389C-38.9828 643.924 -38.72 644.329 -38.3223 644.604C-37.9246 644.874 -37.4061 645.009 -36.7669 645.009C-36.0709 645.009 -35.5145 644.864 -35.0979 644.575C-34.6812 644.282 -34.4729 643.924 -34.4729 643.503C-34.4729 643.162 -34.6007 642.875 -34.8564 642.643C-35.1073 642.411 -35.4932 642.236 -36.0141 642.118L-37.8607 641.713C-38.8786 641.481 -39.6315 641.112 -40.1192 640.605C-40.6021 640.098 -40.8436 639.457 -40.8436 638.68C-40.8436 638.036 -40.6637 637.473 -40.3038 636.99C-39.944 636.507 -39.4468 636.131 -38.8124 635.861C-38.1779 635.586 -37.4511 635.449 -36.632 635.449C-35.453 635.449 -34.525 635.705 -33.8479 636.216C-33.1708 636.723 -32.7233 637.402 -32.5055 638.254ZM-23.0559 646.72C-24.1307 646.72 -25.0564 646.491 -25.8329 646.031C-26.6047 645.567 -27.2013 644.916 -27.6227 644.078C-28.0393 643.235 -28.2477 642.248 -28.2477 641.116C-28.2477 639.999 -28.0393 639.014 -27.6227 638.162C-27.2013 637.31 -26.6141 636.644 -25.8613 636.166C-25.1037 635.688 -24.2183 635.449 -23.205 635.449C-22.5895 635.449 -21.9929 635.551 -21.4153 635.754C-20.8376 635.958 -20.3192 636.277 -19.8599 636.713C-19.4006 637.149 -19.0384 637.714 -18.7732 638.411C-18.5081 639.102 -18.3755 639.942 -18.3755 640.932V641.685H-27.0474V640.094H-20.4565C-20.4565 639.535 -20.5701 639.04 -20.7974 638.609C-21.0246 638.174 -21.3442 637.83 -21.7562 637.58C-22.1634 637.329 -22.6416 637.203 -23.1908 637.203C-23.7874 637.203 -24.3083 637.35 -24.7533 637.643C-25.1937 637.932 -25.5346 638.311 -25.7761 638.78C-26.0128 639.244 -26.1312 639.748 -26.1312 640.293V641.536C-26.1312 642.265 -26.0033 642.885 -25.7477 643.396C-25.4872 643.908 -25.125 644.298 -24.661 644.568C-24.197 644.833 -23.6549 644.966 -23.0346 644.966C-22.6321 644.966 -22.2652 644.909 -21.9337 644.795C-21.6023 644.677 -21.3158 644.502 -21.0744 644.27C-20.8329 644.038 -20.6482 643.751 -20.5204 643.411L-18.5104 643.773C-18.6714 644.365 -18.9603 644.883 -19.3769 645.328C-19.7889 645.768 -20.3073 646.112 -20.9323 646.358C-21.5526 646.599 -22.2604 646.72 -23.0559 646.72ZM-8.72699 635.591V637.295H-14.6858V635.591H-8.72699ZM-13.0878 632.977H-10.9642V643.297C-10.9642 643.709 -10.9027 644.019 -10.7795 644.227C-10.6564 644.431 -10.4978 644.571 -10.3037 644.646C-10.1048 644.717 -9.88939 644.753 -9.65739 644.753C-9.48693 644.753 -9.33778 644.741 -9.20994 644.717C-9.0821 644.694 -8.98267 644.675 -8.91165 644.661L-8.52813 646.415C-8.65123 646.462 -8.82642 646.509 -9.05369 646.557C-9.28097 646.609 -9.56506 646.637 -9.90597 646.642C-10.4647 646.652 -10.9855 646.552 -11.4685 646.344C-11.9514 646.135 -12.342 645.813 -12.6403 645.378C-12.9386 644.942 -13.0878 644.395 -13.0878 643.737V632.977ZM3.48551 646.5V631.955H8.67017C9.8018 631.955 10.7393 632.161 11.4827 632.572C12.226 632.984 12.7824 633.548 13.1517 634.263C13.521 634.973 13.7057 635.773 13.7057 636.663C13.7057 637.558 13.5187 638.363 13.1446 639.078C12.7753 639.788 12.2166 640.352 11.4685 640.768C10.7251 641.18 9.78996 641.386 8.66307 641.386H5.09772V639.526H8.4642C9.17916 639.526 9.75918 639.402 10.2043 639.156C10.6493 638.905 10.976 638.564 11.1844 638.134C11.3927 637.703 11.4969 637.213 11.4969 636.663C11.4969 636.114 11.3927 635.626 11.1844 635.2C10.976 634.774 10.647 634.44 10.1972 634.199C9.75208 633.957 9.16496 633.837 8.43579 633.837H5.68011V646.5H3.48551ZM21.3851 646.741C20.6938 646.741 20.0688 646.614 19.5101 646.358C18.9514 646.098 18.5087 645.721 18.182 645.229C17.86 644.736 17.699 644.133 17.699 643.418C17.699 642.802 17.8174 642.295 18.0541 641.898C18.2909 641.5 18.6105 641.185 19.0129 640.953C19.4154 640.721 19.8652 640.546 20.3624 640.428C20.8595 640.309 21.3661 640.219 21.8822 640.158C22.5357 640.082 23.066 640.02 23.4732 639.973C23.8804 639.921 24.1763 639.838 24.3609 639.724C24.5456 639.611 24.6379 639.426 24.6379 639.17V639.121C24.6379 638.5 24.4627 638.02 24.1124 637.679C23.7667 637.338 23.2506 637.168 22.5641 637.168C21.8491 637.168 21.2857 637.326 20.8737 637.643C20.4665 637.956 20.1848 638.304 20.0286 638.688L18.0328 638.233C18.2696 637.57 18.6152 637.035 19.0697 636.628C19.529 636.216 20.057 635.918 20.6536 635.733C21.2501 635.544 21.8775 635.449 22.5357 635.449C22.9713 635.449 23.4329 635.501 23.9206 635.605C24.413 635.705 24.8723 635.889 25.2984 636.159C25.7293 636.429 26.0821 636.815 26.3567 637.317C26.6313 637.814 26.7686 638.46 26.7686 639.256V646.5H24.6947V645.009H24.6095C24.4722 645.283 24.2662 645.553 23.9916 645.818C23.717 646.083 23.3643 646.304 22.9334 646.479C22.5025 646.654 21.9864 646.741 21.3851 646.741ZM21.8467 645.037C22.4339 645.037 22.9357 644.921 23.3524 644.689C23.7738 644.457 24.0934 644.154 24.3112 643.78C24.5338 643.401 24.645 642.996 24.645 642.565V641.159C24.5693 641.235 24.4225 641.306 24.2047 641.372C23.9916 641.434 23.7478 641.488 23.4732 641.536C23.1985 641.578 22.931 641.618 22.6706 641.656C22.4102 641.689 22.1924 641.718 22.0172 641.741C21.6053 641.794 21.2288 641.881 20.8879 642.004C20.5518 642.127 20.2819 642.305 20.0783 642.537C19.8794 642.764 19.78 643.067 19.78 643.446C19.78 643.972 19.9741 644.369 20.3624 644.639C20.7506 644.904 21.2454 645.037 21.8467 645.037ZM39.9718 638.254L38.0471 638.595C37.9666 638.349 37.8388 638.115 37.6636 637.892C37.4931 637.67 37.2611 637.487 36.9675 637.345C36.674 637.203 36.307 637.132 35.8667 637.132C35.2654 637.132 34.7635 637.267 34.361 637.537C33.9585 637.802 33.7573 638.145 33.7573 638.567C33.7573 638.931 33.8923 639.225 34.1621 639.447C34.432 639.67 34.8676 639.852 35.469 639.994L37.2019 640.392C38.2057 640.624 38.9538 640.982 39.4462 641.464C39.9387 641.947 40.1849 642.575 40.1849 643.347C40.1849 644 39.9955 644.582 39.6167 645.094C39.2426 645.6 38.7194 645.998 38.0471 646.287C37.3795 646.576 36.6053 646.72 35.7246 646.72C34.5031 646.72 33.5064 646.46 32.7346 645.939C31.9628 645.413 31.4893 644.668 31.3141 643.702L33.3667 643.389C33.4945 643.924 33.7573 644.329 34.155 644.604C34.5528 644.874 35.0712 645.009 35.7104 645.009C36.4065 645.009 36.9628 644.864 37.3795 644.575C37.7961 644.282 38.0045 643.924 38.0045 643.503C38.0045 643.162 37.8766 642.875 37.621 642.643C37.37 642.411 36.9841 642.236 36.4633 642.118L34.6167 641.713C33.5987 641.481 32.8459 641.112 32.3582 640.605C31.8752 640.098 31.6337 639.457 31.6337 638.68C31.6337 638.036 31.8137 637.473 32.1735 636.99C32.5334 636.507 33.0305 636.131 33.665 635.861C34.2995 635.586 35.0263 635.449 35.8454 635.449C37.0244 635.449 37.9524 635.705 38.6295 636.216C39.3066 636.723 39.754 637.402 39.9718 638.254ZM52.8945 638.254L50.9697 638.595C50.8893 638.349 50.7614 638.115 50.5862 637.892C50.4158 637.67 50.1838 637.487 49.8902 637.345C49.5966 637.203 49.2297 637.132 48.7893 637.132C48.188 637.132 47.6861 637.267 47.2837 637.537C46.8812 637.802 46.68 638.145 46.68 638.567C46.68 638.931 46.8149 639.225 47.0848 639.447C47.3547 639.67 47.7903 639.852 48.3916 639.994L50.1246 640.392C51.1284 640.624 51.8765 640.982 52.3689 641.464C52.8613 641.947 53.1075 642.575 53.1075 643.347C53.1075 644 52.9181 644.582 52.5393 645.094C52.1653 645.6 51.6421 645.998 50.9697 646.287C50.3021 646.576 49.528 646.72 48.6473 646.72C47.4257 646.72 46.429 646.46 45.6572 645.939C44.8855 645.413 44.412 644.668 44.2368 643.702L46.2893 643.389C46.4172 643.924 46.68 644.329 47.0777 644.604C47.4754 644.874 47.9939 645.009 48.6331 645.009C49.3291 645.009 49.8855 644.864 50.3021 644.575C50.7188 644.282 50.9271 643.924 50.9271 643.503C50.9271 643.162 50.7993 642.875 50.5436 642.643C50.2927 642.411 49.9068 642.236 49.3859 642.118L47.5393 641.713C46.5214 641.481 45.7685 641.112 45.2808 640.605C44.7979 640.098 44.5564 639.457 44.5564 638.68C44.5564 638.036 44.7363 637.473 45.0962 636.99C45.456 636.507 45.9532 636.131 46.5876 635.861C47.2221 635.586 47.9489 635.449 48.768 635.449C49.947 635.449 50.8751 635.705 51.5521 636.216C52.2292 636.723 52.6767 637.402 52.8945 638.254ZM62.2376 646.72C61.2148 646.72 60.3223 646.486 59.56 646.017C58.7977 645.548 58.2058 644.893 57.7844 644.05C57.363 643.207 57.1523 642.222 57.1523 641.095C57.1523 639.964 57.363 638.974 57.7844 638.126C58.2058 637.279 58.7977 636.621 59.56 636.152C60.3223 635.683 61.2148 635.449 62.2376 635.449C63.2603 635.449 64.1528 635.683 64.9151 636.152C65.6774 636.621 66.2693 637.279 66.6907 638.126C67.1121 638.974 67.3228 639.964 67.3228 641.095C67.3228 642.222 67.1121 643.207 66.6907 644.05C66.2693 644.893 65.6774 645.548 64.9151 646.017C64.1528 646.486 63.2603 646.72 62.2376 646.72ZM62.2447 644.938C62.9076 644.938 63.4568 644.762 63.8924 644.412C64.328 644.062 64.65 643.595 64.8583 643.013C65.0714 642.43 65.1779 641.789 65.1779 641.088C65.1779 640.392 65.0714 639.753 64.8583 639.17C64.65 638.583 64.328 638.112 63.8924 637.757C63.4568 637.402 62.9076 637.224 62.2447 637.224C61.5771 637.224 61.0231 637.402 60.5827 637.757C60.1471 638.112 59.8228 638.583 59.6097 639.17C59.4014 639.753 59.2972 640.392 59.2972 641.088C59.2972 641.789 59.4014 642.43 59.6097 643.013C59.8228 643.595 60.1471 644.062 60.5827 644.412C61.0231 644.762 61.5771 644.938 62.2447 644.938ZM73.9262 646.5L70.716 635.591H72.9106L75.0484 643.602H75.1549L77.2998 635.591H79.4944L81.6251 643.567H81.7316L83.8552 635.591H86.0498L82.8467 646.5H80.6805L78.4646 638.624H78.3012L76.0853 646.5H73.9262ZM90.2651 646.5V635.591H92.3176V637.324H92.4312C92.6301 636.737 92.9805 636.275 93.4824 635.939C93.989 635.598 94.5619 635.428 95.2011 635.428C95.3337 635.428 95.49 635.432 95.6699 635.442C95.8545 635.451 95.999 635.463 96.1031 635.477V637.509C96.0179 637.485 95.8664 637.459 95.6486 637.43C95.4308 637.397 95.213 637.381 94.9952 637.381C94.4933 637.381 94.0458 637.487 93.6528 637.7C93.2646 637.909 92.9568 638.2 92.7295 638.574C92.5023 638.943 92.3886 639.365 92.3886 639.838V646.5H90.2651ZM103.834 646.713C102.953 646.713 102.167 646.488 101.476 646.038C100.79 645.584 100.25 644.937 99.8568 644.099C99.4685 643.257 99.2744 642.246 99.2744 641.067C99.2744 639.888 99.4709 638.879 99.8639 638.041C100.262 637.203 100.806 636.562 101.497 636.116C102.189 635.671 102.972 635.449 103.848 635.449C104.525 635.449 105.07 635.562 105.482 635.79C105.898 636.012 106.22 636.273 106.448 636.571C106.68 636.869 106.86 637.132 106.987 637.359H107.115V631.955H109.239V646.5H107.165V644.803H106.987C106.86 645.035 106.675 645.3 106.433 645.598C106.197 645.896 105.87 646.157 105.453 646.379C105.037 646.602 104.497 646.713 103.834 646.713ZM104.303 644.902C104.914 644.902 105.43 644.741 105.851 644.419C106.277 644.092 106.599 643.64 106.817 643.062C107.04 642.485 107.151 641.812 107.151 641.045C107.151 640.288 107.042 639.625 106.824 639.057C106.606 638.489 106.287 638.046 105.865 637.729C105.444 637.411 104.923 637.253 104.303 637.253C103.664 637.253 103.131 637.419 102.705 637.75C102.279 638.081 101.957 638.534 101.739 639.107C101.526 639.679 101.419 640.326 101.419 641.045C101.419 641.775 101.528 642.43 101.746 643.013C101.964 643.595 102.286 644.057 102.712 644.398C103.143 644.734 103.673 644.902 104.303 644.902Z" fill="white"/>
<path d="M330.876 123.727C314.814 123.727 350.265 103.273 333.157 70.1845C321.752 49.7299 323.938 1 340 1" stroke="#9D9D9D" stroke-width="2"/>
<g filter="url(#filter0_d_0_1)">
<ellipse cx="327" cy="198.906" rx="80" ry="7.64854" fill="#55637B"/>
</g>
<path d="M407 198.359C407 205.16 356.119 195.696 327.4 195.696C298.681 195.696 247 205.16 247 198.359C247 191.558 298.681 158.751 327.4 158.751C356.119 158.751 407 191.558 407 198.359Z" fill="#55637B"/>
<path d="M315 133.964C315 127.061 320.596 121.464 327.5 121.464V121.464C334.404 121.464 340 127.061 340 133.964V161.3H315V133.964Z" fill="#55637B"/>
<path d="M590.993 182.617L632.715 186.008L674.49 188.346L714.286 185.526L752.988 181.185L961 651H385L590.993 182.617Z" fill="url(#paint0_linear_0_1)" fill-opacity="0.04"/>
<rect x="-206.8" y="512.2" width="453.6" height="68.6" rx="4.8" stroke="#F3F3F3" stroke-width="0.4"/>
<defs>
<filter id="filter0_d_0_1" x="0.800003" y="145.057" width="652.4" height="507.697" filterUnits="userSpaceOnUse" color-interpolation-filters="sRGB">
<feFlood flood-opacity="0" result="BackgroundImageFix"/>
<feColorMatrix in="SourceAlpha" type="matrix" values="0 0 0 0 0 0 0 0 0 0 0 0 0 0 0 0 0 0 127 0" result="hardAlpha"/>
<feMorphology radius="53" operator="dilate" in="SourceAlpha" result="effect1_dropShadow_0_1"/>
<feOffset dy="200"/>
<feGaussianBlur stdDeviation="96.6"/>
<feComposite in2="hardAlpha" operator="out"/>
<feColorMatrix type="matrix" values="0 0 0 0 1 0 0 0 0 1 0 0 0 0 1 0 0 0 0.25 0"/>
<feBlend mode="normal" in2="BackgroundImageFix" result="effect1_dropShadow_0_1"/>
<feBlend mode="normal" in="SourceGraphic" in2="effect1_dropShadow_0_1" result="shape"/>
</filter>
<linearGradient id="paint0_linear_0_1" x1="673" y1="181.185" x2="673" y2="651" gradientUnits="userSpaceOnUse">
<stop stop-color="#E9E9E9"/>
<stop offset="1" stop-color="#E9E9E9" stop-opacity="0"/>
</linearGradient>
</defs>
</svg>
